<?xml version="1.0" encoding="UTF-8" standalone="no"?>
<!DOCTYPE svg PUBLIC "-//W3C//DTD SVG 1.1//EN"
 "http://www.w3.org/Graphics/SVG/1.1/DTD/svg11.dtd">
<!-- Generated by graphviz version 2.43.0 (0)
 -->
<!-- Title: PHM Pages: 1 -->
<svg width="2414pt" height="274pt"
 viewBox="0.00 0.00 2413.60 274.09" xmlns="http://www.w3.org/2000/svg" xmlns:xlink="http://www.w3.org/1999/xlink">
<g id="graph0" class="graph" transform="scale(1 1) rotate(0) translate(28.8 245.29)">
<title>PHM</title>
<polygon fill="#0b0f14" stroke="transparent" points="-28.8,28.8 -28.8,-245.29 2384.8,-245.29 2384.8,28.8 -28.8,28.8"/>
<g id="clust1" class="cluster">
<title>cluster_inputs</title>
<path fill="#0e141b" stroke="#1a222b" d="M20,-20.49C20,-20.49 195,-20.49 195,-20.49 201,-20.49 207,-26.49 207,-32.49 207,-32.49 207,-196.49 207,-196.49 207,-202.49 201,-208.49 195,-208.49 195,-208.49 20,-208.49 20,-208.49 14,-208.49 8,-202.49 8,-196.49 8,-196.49 8,-32.49 8,-32.49 8,-26.49 14,-20.49 20,-20.49"/>
<text text-anchor="middle" x="107.5" y="-194.89" font-family="Helvetica,sans-Serif" font-size="12.00" fill="#7d8da0">inputs (observed)</text>
</g>
<g id="clust2" class="cluster">
<title>cluster_detect</title>
<path fill="#0e141b" stroke="#1a222b" d="M326,-20.49C326,-20.49 575,-20.49 575,-20.49 581,-20.49 587,-26.49 587,-32.49 587,-32.49 587,-196.49 587,-196.49 587,-202.49 581,-208.49 575,-208.49 575,-208.49 326,-208.49 326,-208.49 320,-208.49 314,-202.49 314,-196.49 314,-196.49 314,-32.49 314,-32.49 314,-26.49 320,-20.49 326,-20.49"/>
<text text-anchor="middle" x="450.5" y="-194.89" font-family="Helvetica,sans-Serif" font-size="12.00" fill="#7d8da0">detectors (phm_core hysteresis + severity)</text>
</g>
<!-- embed -->
<g id="node1" class="node">
<title>embed</title>
<path fill="#13354a" stroke="#1f2933" stroke-width="1.4" d="M187,-178.99C187,-178.99 28,-178.99 28,-178.99 22,-178.99 16,-172.99 16,-166.99 16,-166.99 16,-131.99 16,-131.99 16,-125.99 22,-119.99 28,-119.99 28,-119.99 187,-119.99 187,-119.99 193,-119.99 199,-125.99 199,-131.99 199,-131.99 199,-166.99 199,-166.99 199,-172.99 193,-178.99 187,-178.99"/>
<text text-anchor="middle" x="107.5" y="-159.39" font-family="Helvetica,sans-Serif" font-size="12.00" fill="#e6edf3">policy internals</text>
<text text-anchor="middle" x="107.5" y="-146.39" font-family="Helvetica,sans-Serif" font-size="12.00" fill="#e6edf3">PolicyEmbedding</text>
<text text-anchor="middle" x="107.5" y="-133.39" font-family="Helvetica,sans-Serif" font-size="12.00" fill="#e6edf3">(512&#45;D recurrent feature)</text>
</g>
<!-- ood -->
<g id="node3" class="node">
<title>ood</title>
<path fill="#1d4d3f" stroke="#1f2933" stroke-width="1.4" d="M518,-178.99C518,-178.99 382,-178.99 382,-178.99 376,-178.99 370,-172.99 370,-166.99 370,-166.99 370,-131.99 370,-131.99 370,-125.99 376,-119.99 382,-119.99 382,-119.99 518,-119.99 518,-119.99 524,-119.99 530,-125.99 530,-131.99 530,-131.99 530,-166.99 530,-166.99 530,-172.99 524,-178.99 518,-178.99"/>
<text text-anchor="middle" x="450" y="-159.39" font-family="Helvetica,sans-Serif" font-size="12.00" fill="#e6edf3">phm_ood</text>
<text text-anchor="middle" x="450" y="-146.39" font-family="Helvetica,sans-Serif" font-size="12.00" fill="#e6edf3">rolling&#45;spread OOD</text>
<text text-anchor="middle" x="450" y="-133.39" font-family="Helvetica,sans-Serif" font-size="12.00" fill="#e6edf3">spread &lt; thr &#45;&gt; firing</text>
</g>
<!-- embed&#45;&gt;ood -->
<g id="edge1" class="edge">
<title>embed&#45;&gt;ood</title>
<path fill="none" stroke="#5a6b7b" stroke-width="1.3" d="M199.3,-149.49C249.59,-149.49 311.81,-149.49 361.56,-149.49"/>
<polygon fill="#5a6b7b" stroke="#5a6b7b" stroke-width="1.3" points="361.75,-152.29 369.75,-149.49 361.75,-146.69 361.75,-152.29"/>
<text text-anchor="middle" x="260.5" y="-152.49" font-family="Helvetica,sans-Serif" font-size="10.00" fill="#9fb0c0">hidden state</text>
</g>
<!-- health -->
<g id="node2" class="node">
<title>health</title>
<path fill="#13354a" stroke="#1f2933" stroke-width="1.4" d="M176,-87.99C176,-87.99 39,-87.99 39,-87.99 33,-87.99 27,-81.99 27,-75.99 27,-75.99 27,-40.99 27,-40.99 27,-34.99 33,-28.99 39,-28.99 39,-28.99 176,-28.99 176,-28.99 182,-28.99 188,-34.99 188,-40.99 188,-40.99 188,-75.99 188,-75.99 188,-81.99 182,-87.99 176,-87.99"/>
<text text-anchor="middle" x="107.5" y="-68.39" font-family="Helvetica,sans-Serif" font-size="12.00" fill="#e6edf3">node + sensor health</text>
<text text-anchor="middle" x="107.5" y="-55.39" font-family="Helvetica,sans-Serif" font-size="12.00" fill="#e6edf3">frequency / liveness</text>
<text text-anchor="middle" x="107.5" y="-42.39" font-family="Helvetica,sans-Serif" font-size="12.00" fill="#e6edf3">CPU / staleness</text>
</g>
<!-- det -->
<g id="node4" class="node">
<title>det</title>
<path fill="#1d4d3f" stroke="#1f2933" stroke-width="1.4" d="M517.5,-87.99C517.5,-87.99 382.5,-87.99 382.5,-87.99 376.5,-87.99 370.5,-81.99 370.5,-75.99 370.5,-75.99 370.5,-40.99 370.5,-40.99 370.5,-34.99 376.5,-28.99 382.5,-28.99 382.5,-28.99 517.5,-28.99 517.5,-28.99 523.5,-28.99 529.5,-34.99 529.5,-40.99 529.5,-40.99 529.5,-75.99 529.5,-75.99 529.5,-81.99 523.5,-87.99 517.5,-87.99"/>
<text text-anchor="middle" x="450" y="-68.39" font-family="Helvetica,sans-Serif" font-size="12.00" fill="#e6edf3">phm_detectors</text>
<text text-anchor="middle" x="450" y="-55.39" font-family="Helvetica,sans-Serif" font-size="12.00" fill="#e6edf3">frequency / threshold</text>
<text text-anchor="middle" x="450" y="-42.39" font-family="Helvetica,sans-Serif" font-size="12.00" fill="#e6edf3">liveness checks</text>
</g>
<!-- health&#45;&gt;det -->
<g id="edge2" class="edge">
<title>health&#45;&gt;det</title>
<path fill="none" stroke="#5a6b7b" stroke-width="1.3" d="M188.33,-58.49C240.5,-58.49 308.61,-58.49 362.13,-58.49"/>
<polygon fill="#5a6b7b" stroke="#5a6b7b" stroke-width="1.3" points="362.26,-61.29 370.26,-58.49 362.26,-55.69 362.26,-61.29"/>
<text text-anchor="middle" x="260.5" y="-61.49" font-family="Helvetica,sans-Serif" font-size="10.00" fill="#9fb0c0">topic stats</text>
</g>
<!-- verdict -->
<g id="node5" class="node">
<title>verdict</title>
<polygon fill="#3a2f12" stroke="#5a4a1a" stroke-width="1.4" points="831,-138.99 642,-138.99 642,-79.99 837,-79.99 837,-132.99 831,-138.99"/>
<polyline fill="none" stroke="#5a4a1a" stroke-width="1.4" points="831,-138.99 831,-132.99 "/>
<polyline fill="none" stroke="#5a4a1a" stroke-width="1.4" points="837,-132.99 831,-132.99 "/>
<text text-anchor="middle" x="739.5" y="-119.39" font-family="Helvetica,sans-Serif" font-size="12.00" fill="#e6edf3">DetectorVerdict</text>
<text text-anchor="middle" x="739.5" y="-106.39" font-family="Helvetica,sans-Serif" font-size="12.00" fill="#e6edf3">source, score[0..1],</text>
<text text-anchor="middle" x="739.5" y="-93.39" font-family="Helvetica,sans-Serif" font-size="12.00" fill="#e6edf3">violating, suggested_action</text>
</g>
<!-- ood&#45;&gt;verdict -->
<g id="edge3" class="edge">
<title>ood&#45;&gt;verdict</title>
<path fill="none" stroke="#5a6b7b" stroke-width="1.3" d="M530.32,-138.46C562.25,-134.02 599.53,-128.83 633.64,-124.08"/>
<polygon fill="#5a6b7b" stroke="#5a6b7b" stroke-width="1.3" points="634.24,-126.83 641.78,-122.95 633.47,-121.28 634.24,-126.83"/>
</g>
<!-- det&#45;&gt;verdict -->
<g id="edge4" class="edge">
<title>det&#45;&gt;verdict</title>
<path fill="none" stroke="#5a6b7b" stroke-width="1.3" d="M529.56,-72.43C561.65,-78.12 599.24,-84.79 633.63,-90.89"/>
<polygon fill="#5a6b7b" stroke="#5a6b7b" stroke-width="1.3" points="633.46,-93.71 641.83,-92.35 634.44,-88.19 633.46,-93.71"/>
</g>
<!-- arbiter -->
<g id="node6" class="node">
<title>arbiter</title>
<path fill="#4a2030" stroke="#6a2c44" stroke-width="1.4" d="M1184,-138.99C1184,-138.99 993,-138.99 993,-138.99 987,-138.99 981,-132.99 981,-126.99 981,-126.99 981,-91.99 981,-91.99 981,-85.99 987,-79.99 993,-79.99 993,-79.99 1184,-79.99 1184,-79.99 1190,-79.99 1196,-85.99 1196,-91.99 1196,-91.99 1196,-126.99 1196,-126.99 1196,-132.99 1190,-138.99 1184,-138.99"/>
<text text-anchor="middle" x="1088.5" y="-119.39" font-family="Helvetica,sans-Serif" font-size="12.00" fill="#e6edf3">phm_arbiter</text>
<text text-anchor="middle" x="1088.5" y="-106.39" font-family="Helvetica,sans-Serif" font-size="12.00" fill="#e6edf3">worst&#45;wins fusion</text>
<text text-anchor="middle" x="1088.5" y="-93.39" font-family="Helvetica,sans-Serif" font-size="12.00" fill="#e6edf3">staleness floor, allowlist clamp</text>
</g>
<!-- verdict&#45;&gt;arbiter -->
<g id="edge5" class="edge">
<title>verdict&#45;&gt;arbiter</title>
<path fill="none" stroke="#5a6b7b" stroke-width="1.3" d="M837.16,-109.49C879.16,-109.49 928.7,-109.49 972.57,-109.49"/>
<polygon fill="#5a6b7b" stroke="#5a6b7b" stroke-width="1.3" points="972.7,-112.29 980.7,-109.49 972.7,-106.69 972.7,-112.29"/>
<text text-anchor="middle" x="909" y="-112.49" font-family="Helvetica,sans-Serif" font-size="10.00" fill="#9fb0c0">latest per source</text>
</g>
<!-- status -->
<g id="node7" class="node">
<title>status</title>
<path fill="#5a3410" stroke="#7a4814" stroke-width="2" d="M1561,-138.99C1561,-138.99 1335,-138.99 1335,-138.99 1329,-138.99 1323,-132.99 1323,-126.99 1323,-126.99 1323,-91.99 1323,-91.99 1323,-85.99 1329,-79.99 1335,-79.99 1335,-79.99 1561,-79.99 1561,-79.99 1567,-79.99 1573,-85.99 1573,-91.99 1573,-91.99 1573,-126.99 1573,-126.99 1573,-132.99 1567,-138.99 1561,-138.99"/>
<text text-anchor="middle" x="1448" y="-119.39" font-family="Helvetica,sans-Serif" font-size="12.00" fill="#e6edf3">PolicyHealthStatus</text>
<text text-anchor="middle" x="1448" y="-106.39" font-family="Helvetica,sans-Serif" font-size="12.00" fill="#e6edf3">OK / DEGRADED / INTERVENE / STOP</text>
<text text-anchor="middle" x="1448" y="-93.39" font-family="Helvetica,sans-Serif" font-size="12.00" fill="#e6edf3">score + reason + suggested_action</text>
</g>
<!-- arbiter&#45;&gt;status -->
<g id="edge6" class="edge">
<title>arbiter&#45;&gt;status</title>
<path fill="none" stroke="#5a6b7b" stroke-width="1.3" d="M1196.28,-109.49C1233.45,-109.49 1275.6,-109.49 1314.59,-109.49"/>
<polygon fill="#5a6b7b" stroke="#5a6b7b" stroke-width="1.3" points="1314.86,-112.29 1322.86,-109.49 1314.86,-106.69 1314.86,-112.29"/>
<text text-anchor="middle" x="1259.5" y="-112.49" font-family="Helvetica,sans-Serif" font-size="10.00" fill="#9fb0c0">max severity</text>
</g>
<!-- recovery -->
<g id="node8" class="node">
<title>recovery</title>
<path fill="#143a52" stroke="#1f5577" stroke-width="1.4" d="M1943,-138.99C1943,-138.99 1717,-138.99 1717,-138.99 1711,-138.99 1705,-132.99 1705,-126.99 1705,-126.99 1705,-91.99 1705,-91.99 1705,-85.99 1711,-79.99 1717,-79.99 1717,-79.99 1943,-79.99 1943,-79.99 1949,-79.99 1955,-85.99 1955,-91.99 1955,-91.99 1955,-126.99 1955,-126.99 1955,-132.99 1949,-138.99 1943,-138.99"/>
<text text-anchor="middle" x="1830" y="-119.39" font-family="Helvetica,sans-Serif" font-size="12.00" fill="#e6edf3">phm_recovery</text>
<text text-anchor="middle" x="1830" y="-106.39" font-family="Helvetica,sans-Serif" font-size="12.00" fill="#e6edf3">SafetyEnvelope (cooldown, allowlist)</text>
<text text-anchor="middle" x="1830" y="-93.39" font-family="Helvetica,sans-Serif" font-size="12.00" fill="#e6edf3">safe cmd_vel hold + rewind hook</text>
</g>
<!-- status&#45;&gt;recovery -->
<g id="edge7" class="edge">
<title>status&#45;&gt;recovery</title>
<path fill="none" stroke="#5a6b7b" stroke-width="1.3" d="M1573.16,-109.49C1612.66,-109.49 1656.5,-109.49 1696.56,-109.49"/>
<polygon fill="#5a6b7b" stroke="#5a6b7b" stroke-width="1.3" points="1696.78,-112.29 1704.78,-109.49 1696.78,-106.69 1696.78,-112.29"/>
<text text-anchor="middle" x="1639" y="-112.49" font-family="Helvetica,sans-Serif" font-size="10.00" fill="#9fb0c0">state + action</text>
</g>
<!-- cmd -->
<g id="node9" class="node">
<title>cmd</title>
<polygon fill="#11202b" stroke="#274050" stroke-width="1.4" points="2344,-126.49 2140,-126.49 2140,-92.49 2344,-92.49 2356,-109.49 2344,-126.49"/>
<text text-anchor="middle" x="2248" y="-112.89" font-family="Helvetica,sans-Serif" font-size="12.00" fill="#e6edf3">cmd_vel / actuation seam</text>
<text text-anchor="middle" x="2248" y="-99.89" font-family="Helvetica,sans-Serif" font-size="12.00" fill="#e6edf3">(supervised learned controller)</text>
</g>
<!-- recovery&#45;&gt;cmd -->
<g id="edge8" class="edge">
<title>recovery&#45;&gt;cmd</title>
<path fill="none" stroke="#5a6b7b" stroke-width="1.3" d="M1955.25,-109.49C2011.27,-109.49 2077.02,-109.49 2131.91,-109.49"/>
<polygon fill="#5a6b7b" stroke="#5a6b7b" stroke-width="1.3" points="2131.93,-112.29 2139.93,-109.49 2131.93,-106.69 2131.93,-112.29"/>
<text text-anchor="middle" x="2047.5" y="-123.49" font-family="Helvetica,sans-Serif" font-size="10.00" fill="#9fb0c0">HOLD / STOP_AND_HOLD</text>
<text text-anchor="middle" x="2047.5" y="-112.49" font-family="Helvetica,sans-Serif" font-size="10.00" fill="#9fb0c0">REWIND / RESUME</text>
</g>
<!-- cmd&#45;&gt;embed -->
<g id="edge9" class="edge">
<title>cmd&#45;&gt;embed</title>
<path fill="none" stroke="#3a4a5a" stroke-width="1.3" stroke-dasharray="5,2" d="M2139.89,-89.97C2084.83,-80.7 2016.53,-70.39 1955,-64.49 1349.33,-6.51 1195.33,-24.05 587,-12.49 465.69,-10.19 432.61,13.09 314,-12.49 273.95,-21.13 258.65,-21.2 230,-50.49 211.76,-69.14 225.21,-85.81 207,-104.49 203.21,-108.38 199.02,-111.97 194.57,-115.27"/>
<polygon fill="#3a4a5a" stroke="#3a4a5a" stroke-width="1.3" points="192.86,-113.05 187.88,-119.9 196.05,-117.65 192.86,-113.05"/>
<text text-anchor="middle" x="1088.5" y="-22.49" font-family="Helvetica,sans-Serif" font-size="10.00" fill="#9fb0c0">policy step</text>
</g>
</g>
</svg>
